<svg width="40" height="54" viewBox="0 0 40 54" fill="none" xmlns="http://www.w3.org/2000/svg">
  <path d="M4.17708 48.6563L3.01042 49.5938C2.67708 49.8542 2.27083 50 1.85417 50C0.833333 50 0 49.1667 0 48.1458V20C0 8.95833 8.95833 0 20 0C31.0417 0 40 8.95833 40 20V48.1458C40 49.1667 39.1667 50 38.1458 50C37.7292 50 37.3229 49.8542 36.9896 49.5938L35.8229 48.6563C34.4271 47.5417 32.4062 47.7188 31.2292 49.0625L28.0521 52.7083C27.7083 53.1042 27.1979 53.3333 26.6667 53.3333C26.1354 53.3333 25.6354 53.1042 25.2812 52.7083L22.5104 49.5313C21.1875 48.0104 18.8229 48.0104 17.4896 49.5313L14.7188 52.7083C14.375 53.1042 13.8646 53.3333 13.3333 53.3333C12.8021 53.3333 12.3021 53.1042 11.9479 52.7083L8.77083 49.0625C7.59375 47.7188 5.57292 47.5417 4.17708 48.6563ZM16.6667 20C16.6667 19.1159 16.3155 18.2681 15.6904 17.643C15.0652 17.0179 14.2174 16.6667 13.3333 16.6667C12.4493 16.6667 11.6014 17.0179 10.9763 17.643C10.3512 18.2681 10 19.1159 10 20C10 20.8841 10.3512 21.7319 10.9763 22.357C11.6014 22.9821 12.4493 23.3333 13.3333 23.3333C14.2174 23.3333 15.0652 22.9821 15.6904 22.357C16.3155 21.7319 16.6667 20.8841 16.6667 20ZM26.6667 23.3333C27.5507 23.3333 28.3986 22.9821 29.0237 22.357C29.6488 21.7319 30 20.8841 30 20C30 19.1159 29.6488 18.2681 29.0237 17.643C28.3986 17.0179 27.5507 16.6667 26.6667 16.6667C25.7826 16.6667 24.9348 17.0179 24.3096 17.643C23.6845 18.2681 23.3333 19.1159 23.3333 20C23.3333 20.8841 23.6845 21.7319 24.3096 22.357C24.9348 22.9821 25.7826 23.3333 26.6667 23.3333Z" fill="#5F7187"/>
</svg>
