<svg width="20" height="20" viewBox="0 0 20 20" fill="none" xmlns="http://www.w3.org/2000/svg">
<g clip-path="url(#clip0_1627_8606)">
<path d="M6.2918 18.125C13.8371 18.125 17.9652 11.8723 17.9652 6.45158C17.9652 6.2758 17.9613 6.09611 17.9535 5.92033C18.7566 5.33958 19.4496 4.62024 20 3.79611C19.2521 4.12886 18.458 4.34618 17.6449 4.44064C18.5011 3.92745 19.1421 3.12126 19.4492 2.1715C18.6438 2.64883 17.763 2.98554 16.8445 3.16721C16.2257 2.50966 15.4075 2.07429 14.5164 1.92841C13.6253 1.78252 12.711 1.93424 11.9148 2.36011C11.1186 2.78598 10.4848 3.46229 10.1115 4.28446C9.73825 5.10663 9.64619 6.02888 9.84961 6.90861C8.21874 6.82677 6.62328 6.40312 5.16665 5.66511C3.71002 4.92711 2.42474 3.89123 1.39414 2.62463C0.870333 3.52773 0.710047 4.5964 0.945859 5.61344C1.18167 6.63048 1.79589 7.51957 2.66367 8.10002C2.01219 8.07933 1.37498 7.90393 0.804688 7.5883V7.63908C0.804104 8.58682 1.13175 9.50552 1.73192 10.239C2.3321 10.9725 3.16777 11.4755 4.09687 11.6625C3.49338 11.8276 2.85999 11.8517 2.2457 11.7328C2.50788 12.5479 3.01798 13.2608 3.70481 13.772C4.39164 14.2832 5.22093 14.5672 6.07695 14.5844C4.62369 15.726 2.82848 16.3451 0.980469 16.3422C0.652739 16.3417 0.325333 16.3216 0 16.282C1.87738 17.4865 4.06128 18.1262 6.2918 18.125Z" fill="#111928"/>
</g>
<defs>
<clipPath id="clip0_1627_8606">
<rect width="20" height="20" fill="white"/>
</clipPath>
</defs>
</svg>
