<svg width="20" height="20" viewBox="0 0 20 20" fill="none" xmlns="http://www.w3.org/2000/svg">
<g clip-path="url(#clip0_1627_8680)">
<path fill-rule="evenodd" clip-rule="evenodd" d="M14.0361 5.45655C13.0036 4.4718 11.6257 3.93533 10.2 3.95738C7.59116 3.95738 5.37548 5.71742 4.58546 8.08742C4.16658 9.32938 4.16657 10.6743 4.58546 11.9162H4.58913C5.38281 14.2826 7.59482 16.0426 10.2037 16.0426C11.5504 16.0426 12.7065 15.6982 13.6026 15.0898V15.0873C14.6571 14.3892 15.3773 13.2905 15.6015 12.0485H10.2V8.19772H19.6323C19.7499 8.86647 19.805 9.54992 19.805 10.2297C19.805 13.2712 18.718 15.8427 16.8267 17.5844L16.8287 17.5859C15.1715 19.1145 12.897 20 10.2 20C6.419 20 2.96135 17.8688 1.26375 14.492C-0.154572 11.6664 -0.154568 8.33733 1.26376 5.51169C2.96136 2.1312 6.419 2.50159e-06 10.2 2.50159e-06C12.6839 -0.0293931 15.0833 0.903916 16.8912 2.60151L14.0361 5.45655Z" fill="white"/>
</g>
<defs>
<clipPath id="clip0_1627_8680">
<rect width="20" height="20" fill="white"/>
</clipPath>
</defs>
</svg>
